<svg width="33" height="32" viewBox="0 0 33 32" fill="none" xmlns="http://www.w3.org/2000/svg">
<g clip-path="url(#clip0_2369_1475)">
<path d="M31.3202 7.61011H29.8002V10.6601H26.7502V12.1901H23.7002V13.7101H26.7502V18.2801H25.2302V19.8101H26.7502V22.8501H28.2702V12.1901H29.8002V25.9001H28.2702V32.0001H32.8502V25.9001H31.3202V7.61011Z" fill="#B26FFF"/>
<path d="M29.8 6.09009H26.75V7.61009H29.8V6.09009Z" fill="#B26FFF"/>
<path d="M26.75 22.8501H25.23V24.3801H26.75V22.8501Z" fill="#B26FFF"/>
<path d="M26.7501 9.13989H20.6501V10.6599H26.7501V9.13989Z" fill="#B26FFF"/>
<path d="M26.7502 4.57007H23.7002V6.09007H26.7502V4.57007Z" fill="#B26FFF"/>
<path d="M25.2302 24.3799H22.1802V25.8999H25.2302V24.3799Z" fill="#B26FFF"/>
<path d="M25.2302 19.8101H22.1802V21.3301H25.2302V19.8101Z" fill="#B26FFF"/>
<path d="M23.7001 13.71H20.6501V15.23H23.7001V13.71Z" fill="#B26FFF"/>
<path d="M23.7001 3.04004H20.6501V4.57004H23.7001V3.04004Z" fill="#B26FFF"/>
<path d="M22.18 25.8999H9.98999V27.4199H22.18V25.8999Z" fill="#B26FFF"/>
<path d="M22.18 21.3301H9.98999V22.8501H22.18V21.3301Z" fill="#B26FFF"/>
<path d="M20.6501 15.23H17.6101V16.76H20.6501V15.23Z" fill="#B26FFF"/>
<path d="M20.6501 7.61011H14.5601V9.14011H20.6501V7.61011Z" fill="#B26FFF"/>
<path d="M20.6501 1.52002H17.6101V3.04002H20.6501V1.52002Z" fill="#B26FFF"/>
<path d="M17.6101 0H14.5601V1.52H17.6101V0Z" fill="#B26FFF"/>
<path d="M17.6101 16.76H14.5601V18.28H17.6101V16.76Z" fill="#B26FFF"/>
<path d="M14.56 1.52002H11.51V3.04002H14.56V1.52002Z" fill="#B26FFF"/>
<path d="M14.56 15.23H11.51V16.76H14.56V15.23Z" fill="#B26FFF"/>
<path d="M11.5102 3.04004H8.46021V4.57004H11.5102V3.04004Z" fill="#B26FFF"/>
<path d="M9.99019 24.3799H6.94019V25.8999H9.99019V24.3799Z" fill="#B26FFF"/>
<path d="M9.99019 19.8101H6.94019V21.3301H9.99019V19.8101Z" fill="#B26FFF"/>
<path d="M11.5102 13.71H8.46021V15.23H11.5102V13.71Z" fill="#B26FFF"/>
<path d="M8.46017 4.57007H5.42017V6.09007H8.46017V4.57007Z" fill="#B26FFF"/>
<path d="M6.94017 22.8501H5.42017V24.3801H6.94017V22.8501Z" fill="#B26FFF"/>
<path d="M6.94012 19.8099V18.2799H5.42012V13.7099H8.46012V12.1899H5.42012V10.6599H2.37012V12.1899H3.89012V22.8499H5.42012V19.8099H6.94012Z" fill="#B26FFF"/>
<path d="M5.42012 6.09009H2.37012V7.61009H5.42012V6.09009Z" fill="#B26FFF"/>
<path d="M2.3701 7.61011H0.850098V10.6601H2.3701V7.61011Z" fill="#B26FFF"/>
</g>
<defs>
<clipPath id="clip0_2369_1475">
<rect width="32" height="32" fill="white" transform="translate(0.850098)"/>
</clipPath>
</defs>
</svg>
