<?xml version="1.0" encoding="utf-8"?>
<!-- Generator: Adobe Illustrator 27.0.0, SVG Export Plug-In . SVG Version: 6.00 Build 0)  -->
<svg version="1.1" id="Layer_1" xmlns="http://www.w3.org/2000/svg" xmlns:xlink="http://www.w3.org/1999/xlink" x="0px" y="0px"
	 viewBox="0 0 590.3 451.4" style="enable-background:new 0 0 590.3 451.4;" xml:space="preserve">
<style type="text/css">
	.st0{fill:none;stroke:#000000;stroke-width:22;stroke-linecap:round;stroke-miterlimit:10;}
	.st1{stroke:#000000;stroke-width:9;stroke-miterlimit:10;}
</style>
<g>
	<g>
		<path d="M256.75,421.11c25.23-34.16,49.48-69.04,72.77-104.55c23.9-36.43,46.83-73.51,68.89-111.08
			c17.76-30.26,34.95-60.84,51.65-91.7c10.95-20.24,21.63-40.62,32.35-60.99c2.83-5.38,5.63-10.79,8.65-16.07
			c0.72-1.27,1.48-2.5,2.28-3.72c0.77-1.17-2.13,2.49-1.2,1.55c0.93-0.94-1.11,0.91-1.73,1.28c-5.01,2.94-12.97,0.47-14.44-5.95
			c-0.38-1.67-0.52-3.53-0.03-4.83c-0.2,0.54-0.34,1.11-0.55,1.65c-0.64,1.65-0.38,0.88,0.44-1.01c-0.22,0.51-0.45,1.03-0.67,1.54
			c-1.25,2.79-2.57,5.55-3.9,8.31c-4.06,8.42-8.21,16.8-12.29,25.21c-10.81,22.26-21.39,44.68-30.38,67.74
			c-3.7,9.49-7.2,19.14-9.55,29.05c-1.8,7.57-3.67,16.63-1.2,24.29c1.38,4.27,3.95,8.09,7.99,10.25c4.56,2.43,9.76,2.41,14.68,1.18
			c9.65-2.41,18.5-8.75,26.35-14.6c12.94-9.63,25.06-20.3,36.87-31.27c15.02-13.95,29.54-28.43,43.84-43.11
			c8.02-8.23,15.97-16.53,23.87-24.88c-5.24-4.04-10.47-8.08-15.71-12.12c-12.61,19.06-24.3,38.73-34.92,58.96
			c-9.13,17.38-17.3,35.21-25.29,53.13c-9.22,20.67-18.36,41.67-24.07,63.62c-4.85,18.63-6.95,38.12-2.91,57.1
			c4.15,19.46,15.34,37.22,30.14,50.37c1.28,1.13,2.58,2.23,3.91,3.3c2.13,1.72,4.22,2.93,7.07,2.93c2.45,0,5.38-1.09,7.07-2.93
			c3.34-3.64,4.35-10.63,0-14.14c-2.87-2.32-5.63-4.77-8.23-7.38c-1.5-1.51-2.96-3.06-4.35-4.66c-0.75-0.86-1.48-1.73-2.19-2.61
			c-0.45-0.55-1.39-2.19,0.11,0.18c-0.37-0.59-0.85-1.13-1.26-1.69c-3.13-4.3-5.87-8.89-8.13-13.7c-0.36-0.77-1.77-4.45-0.54-1.11
			c-0.36-0.97-0.77-1.92-1.13-2.88c-0.77-2.07-1.45-4.18-2.04-6.31c-0.5-1.79-0.93-3.6-1.3-5.42c-0.2-0.99-0.38-1.99-0.55-2.98
			c-0.08-0.5-0.16-1-0.23-1.5c-0.28-1.77,0.34,2.82,0.03,0.15c-0.49-4.25-0.67-8.54-0.57-12.81c0.04-1.93,0.14-3.85,0.29-5.78
			c0.08-1.06,0.18-2.13,0.29-3.19c0.06-0.54,0.11-1.07,0.18-1.6c0.09-0.76,0.56-3.42-0.01-0.03c0.78-4.61,1.53-9.19,2.6-13.75
			c2.28-9.7,5.36-19.2,8.81-28.54c1.84-4.98,3.78-9.92,5.8-14.84c0.52-1.27,1.05-2.54,1.58-3.8c0.2-0.49,1.08-2.73,0.07-0.17
			c0.26-0.65,0.55-1.29,0.82-1.93c1.21-2.83,2.44-5.66,3.68-8.48c7.9-17.96,16.01-35.86,24.98-53.32
			c11.33-22.04,23.91-43.43,37.59-64.09c2.75-4.16,1.16-10.02-2.58-12.9c-3.82-2.95-9.69-2.86-13.13,0.78
			c-27.93,29.53-56.27,59.12-87.29,85.46c-2.84,2.41-5.71,4.78-8.62,7.1c-0.57,0.45-1.14,0.9-1.71,1.35
			c-0.34,0.26-0.67,0.53-1.01,0.79c-1.38,1.08,2.08-1.59,0.69-0.54c-1.28,0.98-2.57,1.95-3.88,2.91c-4.29,3.14-8.7,6.16-13.37,8.71
			c-0.96,0.53-1.94,1.03-2.93,1.51c-0.38,0.18-0.77,0.36-1.16,0.54c-2.1,0.98,2.72-1.06,0.61-0.26c-1.56,0.59-3.12,1.06-4.75,1.41
			c-1.77,0.38,2.71-0.26,1.61-0.21c-0.33,0.02-0.66,0.06-0.99,0.07c-0.31,0.01-0.62-0.02-0.94-0.01c-1.71,0.01,3.06,0.63,1.64,0.23
			c-0.26-0.07-0.54-0.14-0.81-0.2c-1.72-0.4,2.1,1.05,1.52,0.67c-0.18-0.11-0.38-0.22-0.57-0.31c-1.45-0.73,2.28,2.13,1.24,0.97
			c-0.13-0.14-0.28-0.29-0.42-0.42c-1.16-1.03,1.68,2.54,1.03,1.35c-0.24-0.45-0.5-0.91-0.74-1.36c1.92,3.49,0.76,1.97,0.43,0.63
			c-0.06-0.25-0.1-0.5-0.16-0.75c-0.46-2.05,0.29,2.94,0.17,1.37c-0.12-1.5-0.16-2.97-0.08-4.47c0.04-0.78,0.11-1.56,0.19-2.33
			c0.11-0.99,0.5-3.12-0.16,1.09c0.07-0.47,0.13-0.93,0.21-1.4c1.49-9.28,4.54-18.34,7.73-27.15c1.97-5.44,4.09-10.83,6.29-16.18
			c0.53-1.29,1.07-2.59,1.61-3.88c0.3-0.71,0.97-2.25-0.41,0.97c0.15-0.35,0.3-0.71,0.45-1.07c0.3-0.71,0.61-1.43,0.91-2.14
			c1.23-2.87,2.49-5.74,3.75-8.6c4.9-11.04,10.03-21.98,15.27-32.86c4.42-9.19,8.93-18.34,13.4-27.51
			c2.99-6.14,6.11-12.27,8.59-18.64c1.59-4.09,1.28-8.75-2-12.03c-4.04-4.03-10.45-3.74-14.43,0.1c-0.84,0.82-1.51,1.81-2.18,2.77
			c-2.3,3.29-4.11,6.97-6,10.5c-9.29,17.31-18.27,34.79-27.52,52.12c-15.28,28.65-30.96,57.08-47.12,85.25
			c-20.9,36.42-42.58,72.39-65.14,107.8c-24.45,38.37-49.94,76.08-76.58,112.96c-4.69,6.5-9.43,12.98-14.19,19.43
			c-1.45,1.96-1.62,5.47-1.01,7.71c0.64,2.32,2.43,4.83,4.6,5.98c2.32,1.23,5.13,1.84,7.71,1.01
			C253.4,424.86,255.12,423.32,256.75,421.11L256.75,421.11z"/>
	</g>
</g>
<g>
	<g>
		<path d="M512.61,302.11c5.23,0,10.24-4.6,10-10c-0.24-5.42-4.39-10-10-10c-5.23,0-10.24,4.6-10,10
			C502.85,297.52,507.01,302.11,512.61,302.11L512.61,302.11z"/>
	</g>
</g>
<path class="st0" d="M177.42,166.08c3,9.72,5.98,22.98,6.41,38.86c0.57,21.31-3.69,38.63-7.46,49.93"/>
<path class="st0" d="M74.66,151.18c42.59-28.47,151.88-96.25,240.09-87.37c14.12,1.42,40.99,4.48,51.53,22.99
	c13.75,24.15-8.44,60.32-18.09,76.05C290.16,257.42,84.6,370.17,22.34,403.36"/>
<path class="st1" d="M276.18,278.11c-2.39,1.24-1.1,9.53,1.25,10.13c1.77,0.45,5.78-3.03,4.44-6.67
	C280.92,278.99,277.64,277.36,276.18,278.11z"/>
</svg>
