<?xml version="1.0" encoding="utf-8"?>
<!-- Generator: Adobe Illustrator 27.0.0, SVG Export Plug-In . SVG Version: 6.00 Build 0)  -->
<svg version="1.1" id="Layer_1" xmlns="http://www.w3.org/2000/svg" xmlns:xlink="http://www.w3.org/1999/xlink" x="0px" y="0px"
	 viewBox="0 0 900 451.4" style="enable-background:new 0 0 900 451.4;" xml:space="preserve">
<style type="text/css">
	.st0{fill:none;stroke:#000000;stroke-width:11;stroke-linecap:round;stroke-miterlimit:10;}
	.st1{stroke:#000000;stroke-width:2;stroke-miterlimit:10;}
</style>
<g>
	<g>
		<path d="M302.85,307.14c-10.87,2.42-21.69,6.06-31.33,11.71c-10.18,5.96-18.64,14.34-23.52,25.17
			c-2.33,5.15-5.22,12.46-1.65,17.73c4.19,6.19,12.61,4.58,18.64,2.57c5.84-1.95,11.44-4.56,16.57-7.97
			c5.79-3.84,11.11-8.41,15.99-13.35c9.73-9.88,17.96-21.25,25.28-33c0.82-1.32,1.63-2.64,2.42-3.97c1.29-2.14,0.64-4.96-1.29-6.45
			c-1.8-1.39-4.99-1.55-6.57,0.39c-8.3,10.24-14.25,22.36-16.21,35.47c-0.68,4.55-1.02,9.11-0.86,13.71
			c0.07,2.12,1.49,4.33,3.67,4.82c2.28,0.52,4.34-0.39,5.65-2.3c3.33-4.85,6.75-9.65,10.26-14.38c0.76-1.02,1.53-2.04,2.3-3.06
			c0.37-0.49,0.75-0.99,1.13-1.48c0.21-0.27,0.41-0.54,0.62-0.81c0.65-0.84-0.5,0.65,0.2-0.26c1.49-1.92,3-3.83,4.53-5.72
			c4.88-6.05,9.96-11.95,15.29-17.61c2.45-2.6,4.93-5.19,7.55-7.63c0.82-0.77,1.66-1.51,2.53-2.23c0.19-0.16,0.38-0.31,0.57-0.46
			c0.92-0.76-0.63,0.44-0.02,0.02c0.51-0.36,1.01-0.73,1.54-1.06c0.35-0.22,0.71-0.44,1.08-0.64c0.21-0.11,0.45-0.2,0.66-0.33
			c0.56-0.34-1.21,0.39-0.3,0.14c0.21-0.06,0.84-0.11,0.96-0.25c-0.36,0.39-1.33,0.08-0.54,0.12c0.54,0.02-1.44-0.35-0.5-0.06
			c0.57,0.18-1.27-0.67-0.52-0.2c-0.02-0.02-0.99-0.87-0.49-0.34c-0.98-1.03-0.51-0.76-0.35-0.44c0.39,0.8-0.12,0.25-0.07-0.25
			c-0.03,0.3,0.22,0.82,0.3,1.12c0.27,1.02-0.07-0.95-0.02-0.23c0.02,0.34,0.06,0.68,0.07,1.02c0.11,2.3-0.12,4.62-0.38,6.91
			c-0.09,0.81-0.18,1.61-0.28,2.41c-0.05,0.45-0.11,0.89-0.17,1.34c-0.02,0.18-0.05,0.37-0.07,0.55c-0.11,0.85-0.06,0.35,0.03-0.21
			c-0.3,1.92-0.55,3.84-0.86,5.75c-1.86,11.48-4.56,22.82-7.83,33.98c-0.7,2.4,0.66,4.95,2.89,5.9c2.09,0.88,5.22,0.23,6.24-2.05
			c4.27-9.46,8.64-18.89,13.34-28.15c2.9-5.71,5.86-11.47,9.47-16.77c0.29-0.42,0.58-0.84,0.88-1.25c0.12-0.17,0.25-0.33,0.37-0.5
			c0.35-0.48-0.97,1.21-0.24,0.32c0.49-0.6,0.98-1.19,1.55-1.71c0.54-0.5,1.22-0.62-0.3,0.18c0.19-0.1,0.44-0.25,0.61-0.38
			c0.13-0.1-1.6,0.53-0.62,0.3c0.39-0.09-1.76,0.15-1.04,0.15c0.64,0-1.64-0.34-1.04-0.14c0.33,0.11-1.51-0.71-0.92-0.38
			c0.15,0.09-1.22-1.1-0.75-0.57c0.25,0.29-0.97-1.34-0.55-0.71c0.14,0.21,0.38,0.82-0.05-0.21c-0.46-1.09-0.05-0.05,0.02,0.28
			c0.04,0.17,0.06,0.34,0.1,0.51c0.19,0.9-0.14-1.52-0.08-0.56c0.16,2.34,0.06,4.67-0.16,7.01c-0.09,0.95-0.19,1.9-0.3,2.84
			c-0.06,0.47-0.13,0.94-0.18,1.41c0.17-1.67-0.01,0.03-0.07,0.45c-0.34,2.36-0.72,4.71-1.13,7.06c-1.05,6-2.28,11.97-3.56,17.92
			c-0.45,2.1,0.28,4.58,2.3,5.65c1.8,0.95,4.68,0.99,6.06-0.78c13.11-16.78,26.22-33.56,39.33-50.34c-2.62-2.02-5.24-4.04-7.85-6.06
			c-5.34,7.7-9.03,16.49-10.14,25.81c-0.74,6.17-0.06,13.5,4.39,18.25c4.61,4.93,12.06,3.64,17.65,1.37
			c7.64-3.1,14.51-7.79,20.68-13.23c7.12-6.27,12.98-13.97,17.03-22.55c1.11-2.36,0.74-5.5-1.79-6.84
			c-2.22-1.17-5.65-0.73-6.84,1.79c-1.45,3.07-3.12,6.04-5.02,8.86c-0.56,0.83-1.14,1.65-1.74,2.45c-0.18,0.24-0.36,0.48-0.54,0.71
			c0.06-0.07,0.45-0.55,0.08-0.12c-0.4,0.48-0.78,0.97-1.18,1.44c-1.3,1.54-2.68,3.02-4.12,4.43c-1.33,1.31-2.71,2.56-4.13,3.76
			c-0.69,0.59-1.39,1.16-2.1,1.72c-0.15,0.12-0.3,0.25-0.46,0.36c0.87-0.58,0.28-0.22,0.09-0.08c-0.41,0.31-0.82,0.61-1.24,0.92
			c-2.86,2.08-5.86,3.98-9.02,5.59c-0.69,0.35-1.4,0.69-2.11,1.01c-0.15,0.07-0.3,0.12-0.44,0.2c-0.6,0.3,0.93-0.37,0.32-0.13
			c-0.38,0.15-0.76,0.31-1.15,0.45c-1.28,0.47-2.58,0.88-3.92,1.15c-0.29,0.06-0.58,0.1-0.87,0.16c-0.52,0.11,0.81-0.09,0.72-0.1
			c-0.14-0.01-0.33,0.04-0.47,0.05c-0.56,0.03-1.11,0.03-1.66,0.02c-0.96-0.02,1.07,0.25,0.42,0.07c-0.19-0.05-0.38-0.08-0.57-0.13
			c-0.23-0.06-0.48-0.2-0.71-0.23c0.04,0.01,1,0.53,0.78,0.32c-0.08-0.08-0.3-0.17-0.39-0.22c-0.69-0.36,0.26,0.12,0.43,0.36
			c-0.13-0.18-0.39-0.34-0.54-0.5c-0.13-0.14-0.25-0.29-0.38-0.42c-0.38-0.38,0.73,1.1,0.19,0.22c-0.26-0.42-0.5-0.84-0.72-1.29
			c-0.06-0.13-0.11-0.28-0.18-0.4c-0.03-0.05,0.4,1.13,0.29,0.67c-0.08-0.34-0.24-0.67-0.34-1.01c-0.16-0.52-0.29-1.05-0.4-1.58
			c-0.06-0.3-0.11-0.61-0.16-0.91c-0.15-0.8,0.07,0.46,0.07,0.52c0-0.18-0.04-0.38-0.06-0.56c-0.14-1.46-0.15-2.93-0.06-4.39
			c0.03-0.49,0.07-0.98,0.12-1.48c0.04-0.44,0.42-1.64,0.03-0.36c0.27-0.89,0.32-1.9,0.52-2.82c0.44-2.02,1.03-4.02,1.73-5.96
			c0.19-0.52,0.38-1.03,0.59-1.54c0.1-0.26,0.21-0.52,0.32-0.78c-0.18,0.43-0.2,0.47,0,0.02c0.52-1.14,1.05-2.26,1.63-3.37
			c1.2-2.29,2.56-4.49,4.04-6.62c1.42-2.05,0.55-5.03-1.29-6.45c-1.77-1.37-5.03-1.57-6.57,0.39
			c-13.11,16.78-26.22,33.56-39.33,50.34c2.79,1.62,5.57,3.24,8.36,4.86c2.18-10.11,4.28-20.29,5.42-30.58
			c0.3-2.66,0.56-5.38,0.39-8.06c-0.15-2.52-0.58-5.24-2.44-7.12c-2.11-2.12-5.37-2.32-7.88-0.83c-1.55,0.92-2.8,2.23-3.91,3.62
			c-3.89,4.91-6.9,10.47-9.8,15.99c-5.53,10.53-10.52,21.34-15.41,32.17c3.05,1.28,6.09,2.57,9.14,3.85
			c3.11-10.63,5.71-21.43,7.56-32.35c0.72-4.24,1.32-8.49,1.82-12.76c0.56-4.78,1.46-10.61-1.12-14.98
			c-1.5-2.53-4.36-4.14-7.32-3.88c-2.63,0.23-5.03,1.35-7.18,2.85c-3.9,2.71-7.28,6.08-10.58,9.48
			c-5.35,5.51-10.44,11.26-15.34,17.18c-8.26,9.98-15.99,20.4-23.32,31.08c3.11,0.84,6.21,1.68,9.32,2.52
			c-0.12-3.51,0.03-7.02,0.43-10.51c0.01-0.05,0.11-0.82,0.03-0.27c-0.08,0.56,0.03-0.22,0.04-0.28c0.07-0.48,0.15-0.96,0.23-1.43
			c0.17-0.99,0.36-1.98,0.58-2.96c0.39-1.77,0.85-3.52,1.38-5.25c0.5-1.63,1.07-3.24,1.69-4.83c0.16-0.42,0.3-0.88,0.52-1.28
			c-0.41,0.76-0.08,0.2,0.11-0.22c0.33-0.74,0.67-1.48,1.03-2.21c1.24-2.55,2.64-5.03,4.19-7.42c0.74-1.15,1.52-2.28,2.32-3.38
			c0.19-0.25,0.37-0.51,0.56-0.76c0.13-0.17,0.78-1.02,0.23-0.32c-0.55,0.7,0.08-0.1,0.22-0.27c0.19-0.24,0.39-0.49,0.59-0.73
			c-2.62-2.02-5.24-4.04-7.85-6.06c-3.2,5.33-6.57,10.56-10.16,15.64c-0.91,1.28-1.83,2.55-2.77,3.81
			c-0.39,0.53-0.79,1.06-1.19,1.58c-0.24,0.32-0.48,0.63-0.72,0.94c0.76-1-0.3,0.38-0.44,0.56c-2.05,2.61-4.18,5.16-6.39,7.64
			c-4.25,4.76-8.82,9.26-13.82,13.24c-0.17,0.13-1.17,0.95-0.19,0.15c-0.3,0.24-0.6,0.46-0.91,0.69c-0.6,0.45-1.21,0.89-1.83,1.32
			c-1.31,0.92-2.66,1.81-4.03,2.64c-1.24,0.76-2.51,1.47-3.81,2.14c-0.53,0.27-1.07,0.54-1.61,0.8c-0.32,0.15-0.65,0.3-0.97,0.45
			c-0.27,0.12-1.68,0.87-0.44,0.2c-2.07,1.11-4.62,1.81-6.87,2.46c-0.63,0.18-1.27,0.35-1.92,0.5c-0.46,0.11-1.56,0.1-1.93,0.37
			c0.23-0.03,0.46-0.06,0.7-0.09c-0.21,0.02-0.42,0.05-0.62,0.06c-0.3,0.03-0.61,0.04-0.91,0.05c-0.29,0.01-0.59,0-0.88-0.01
			c-1.38-0.07,0.76,0.24-0.04,0c-0.2-0.06-0.55-0.2-0.75-0.21c0.85,0.02,0.95,0.5,0.4,0.15c-0.36-0.23-0.7-0.59,0.31,0.3
			c-0.71-0.62,0.17-0.19,0.15,0.32c0-0.02-0.34-0.58-0.35-0.58c0.52,0.17,0.35,1.26,0.17,0.33c-0.02-0.12-0.08-0.63-0.15-0.71
			c0.11,0.92,0.14,1.11,0.1,0.58c-0.01-0.17-0.01-0.35-0.01-0.52c0-0.27,0.01-0.54,0.03-0.81c0.04-0.58,0.38-0.9-0.04,0.21
			c0.2-0.52,0.23-1.18,0.37-1.73c0.33-1.27,0.76-2.51,1.25-3.73c0.13-0.33,0.63-1.19-0.06,0.12c0.13-0.25,0.23-0.52,0.34-0.77
			c0.21-0.47,0.43-0.94,0.66-1.41c0.35-0.71,0.71-1.42,1.08-2.12c0.59-1.11,1.21-2.2,1.9-3.25c0.38-0.58,0.76-1.15,1.17-1.72
			c0.2-0.28,0.41-0.56,0.61-0.83c0.33-0.43,0.28-0.37-0.15,0.2c0.14-0.18,0.29-0.36,0.43-0.54c1.8-2.21,3.81-4.24,5.96-6.1
			c0.52-0.45,1.04-0.88,1.57-1.31c0.07-0.05,0.95-0.75,0.3-0.24c-0.65,0.51,0.24-0.18,0.31-0.23c1.18-0.88,2.4-1.72,3.64-2.52
			c2.65-1.71,5.43-3.23,8.27-4.59c0.7-0.34,1.41-0.66,2.12-0.98c0.3-0.14,0.61-0.27,0.91-0.4c0.2-0.09,0.41-0.17,0.61-0.26
			c-0.69,0.29-0.78,0.33-0.28,0.12c1.31-0.53,2.62-1.05,3.94-1.53c5.16-1.89,10.46-3.37,15.83-4.57c2.56-0.57,4.3-3.67,3.49-6.15
			C308.14,307.95,305.59,306.53,302.85,307.14L302.85,307.14z"/>
	</g>
</g>
<g>
	<g>
		<path d="M460.79,296.43c1.86-3.62,3.63-7.28,5.21-11.04c0.76-1.8,1.54-3.66,1.93-5.58c0.42-2.07,0.5-4.07-0.56-5.98
			c-1.43-2.57-4.68-3.31-7.33-2.48c-2.2,0.69-4.07,1.97-5.87,3.36c-2.16,1.67-4.13,3.54-5.91,5.6c-4.72,5.48-8.43,11.91-10.25,18.94
			c-2.17,8.37-1.55,17.37,1.47,25.45c0.89,2.37,3.43,4.49,6.15,3.49c17.38-6.35,32.93-16.93,44.65-31.31
			c10.25-12.57,17.66-27.08,22.92-42.38c4.6-13.38,7.46-27.31,8.97-41.37c1.02-9.59,1.55-19.43,0.2-29.01
			c-0.35-2.49-0.85-5.56-2.79-7.37c-1.86-1.73-4.67-2.25-6.89-0.83c-1.28,0.81-2.15,1.9-2.98,3.15c-1.64,2.49-2.74,5.4-3.85,8.14
			c-1.58,3.87-2.97,7.82-4.29,11.78c-3.58,10.71-6.68,21.59-9.5,32.53c-3.06,11.88-5.79,23.85-7.91,35.94
			c-1.76,10.03-3.43,20.36-3.18,30.57c0.08,3.43,0.32,7.1,1.54,10.34c1.93,5.12,6.07,8.41,11.9,6.99c2.36-0.57,4.59-1.89,6.53-3.31
			c2.42-1.77,4.66-3.74,6.8-5.84c1.87-1.84,1.98-5.25,0-7.07c-2.01-1.84-5.08-1.96-7.07,0c-1,0.98-2.02,1.95-3.07,2.87
			c-0.45,0.39-0.91,0.77-1.36,1.15c-0.74,0.61-0.16,0.13,0,0.01c-0.33,0.25-0.66,0.49-1,0.72c-0.48,0.33-0.97,0.65-1.47,0.94
			c-0.19,0.11-1.23,0.82-1.42,0.75c-0.02-0.01,1.19-0.41,0.28-0.13c-0.2,0.06-0.39,0.13-0.59,0.19c-0.19,0.05-0.38,0.09-0.57,0.14
			c-0.95,0.26,1.17-0.04,0.24-0.06c-0.8-0.02,0.52,0.11,0.56,0.12c-0.15-0.03-0.34-0.05-0.49-0.11c1.55,0.68,0.75,0.38,0.52,0.22
			c-0.07-0.05-0.18-0.12-0.26-0.16c-0.61-0.28,0.77,0.69,0.68,0.54c-0.09-0.15-0.32-0.3-0.44-0.42c-0.84-0.81,0.7,1.1,0.28,0.39
			c-0.08-0.14-0.67-1.34-0.73-1.34c0.08,0.01,0.59,1.54,0.33,0.76c-0.05-0.14-0.1-0.27-0.15-0.41c-0.11-0.31-0.2-0.62-0.29-0.93
			c-0.17-0.64-0.31-1.28-0.42-1.94c-0.03-0.18-0.06-0.36-0.09-0.54c-0.15-0.91,0.14,0.5,0.09,0.71c0.08-0.31-0.11-0.92-0.14-1.24
			c-0.36-3.85-0.22-7.74,0.06-11.59c0.17-2.37,0.41-4.73,0.68-7.09c0.07-0.59,0.14-1.18,0.22-1.77c0.04-0.32,0.08-0.64,0.12-0.95
			c0.05-0.36,0.14-0.94-0.09,0.69c0.03-0.21,0.06-0.43,0.09-0.64c0.18-1.32,0.38-2.63,0.58-3.95c1.78-11.53,4.23-22.95,6.99-34.28
			c2.7-11.12,5.72-22.17,9.13-33.09c1.38-4.41,2.82-8.8,4.39-13.14c0.64-1.77,1.3-3.52,2-5.27c0.15-0.36,0.3-0.73,0.45-1.09
			c0.39-0.96-0.49,1.14-0.22,0.52c0.08-0.2,0.17-0.39,0.25-0.59c0.28-0.65,0.57-1.29,0.87-1.92c0.46-0.97,0.95-1.95,1.52-2.86
			c0.1-0.17,0.22-0.33,0.32-0.49c0.56-0.86-0.99,1.1-0.41,0.52c0.1-0.09,0.2-0.2,0.28-0.31c0.5-0.63-0.89,0.65-0.7,0.53
			c0.65-0.43-1.39,0.5-0.91,0.37c-0.69,0.19-1.63,0.23-2.38-0.01c-0.77-0.25-1.31-0.55-1.93-1.13c0.51,0.48-0.69-1.21-0.54-0.72
			c0.04,0.11,0.15,0.28,0.21,0.38c0.41,0.64-0.57-1.59-0.28-0.64c0.13,0.44,0.27,0.88,0.38,1.33c0.13,0.57,0.24,1.15,0.33,1.73
			c0.12,0.73,0.17,1.4-0.02-0.26c0.05,0.39,0.1,0.78,0.14,1.17c0.19,1.74,0.29,3.49,0.35,5.23c0.17,4.69,0.03,9.39-0.28,14.06
			c-0.19,2.84-0.45,5.68-0.78,8.51c-0.09,0.75-0.18,1.5-0.27,2.25c-0.04,0.34-0.09,0.67-0.13,1.01c0.22-1.78,0.03-0.22-0.03,0.2
			c-0.22,1.57-0.46,3.14-0.72,4.7c-1.11,6.66-2.57,13.27-4.39,19.77c-0.96,3.42-2.02,6.81-3.2,10.16c-0.61,1.73-1.24,3.45-1.91,5.16
			c-0.34,0.86-0.68,1.72-1.03,2.58c-0.16,0.38-0.34,0.76-0.47,1.14c0.52-1.43-0.06,0.14-0.23,0.52c-3,6.91-6.55,13.59-10.7,19.88
			c-1.05,1.59-2.14,3.15-3.27,4.69c-0.25,0.34-0.51,0.68-0.76,1.02c-0.13,0.17-0.26,0.34-0.39,0.51c-0.56,0.74,0.17-0.26,0.2-0.25
			c-0.23-0.04-1.78,2.23-2,2.49c-2.42,2.93-5.01,5.73-7.76,8.36c-1.43,1.37-2.9,2.69-4.41,3.97c-0.56,0.47-1.12,0.94-1.69,1.39
			c-0.25,0.2-0.5,0.4-0.75,0.6c-0.11,0.08-0.75,0.57-0.12,0.09c-1.11,0.84-2.22,1.66-3.36,2.45c-4.03,2.8-8.28,5.29-12.68,7.45
			c-0.94,0.46-1.89,0.91-2.84,1.34c-0.4,0.18-0.8,0.36-1.21,0.54c-0.2,0.09-0.39,0.17-0.59,0.25c-0.79,0.34,0.24-0.11,0.33-0.14
			c-1.57,0.5-3.1,1.25-4.65,1.82c2.05,1.16,4.1,2.33,6.15,3.49c-0.91-2.44-1.61-4.95-2.05-7.52c-0.04-0.21-0.03-0.97-0.17-1.1
			c0.02,0.02,0.11,0.97,0.06,0.38c-0.02-0.19-0.04-0.39-0.06-0.58c-0.09-0.88-0.15-1.76-0.17-2.64c-0.03-0.93-0.02-1.87,0.02-2.8
			c0.02-0.45,0.05-0.9,0.09-1.34c0.02-0.23,0.04-0.46,0.07-0.68c0.01-0.1,0.13-1.03,0.05-0.49c-0.08,0.56,0.04-0.22,0.05-0.27
			c0.04-0.24,0.08-0.47,0.13-0.71c0.08-0.42,0.17-0.85,0.26-1.27c0.19-0.85,0.42-1.7,0.67-2.54c0.21-0.71,0.45-1.41,0.7-2.1
			c0.13-0.34,0.27-0.68,0.39-1.02c0.19-0.53-0.14,0.34-0.16,0.36c0.13-0.19,0.2-0.45,0.29-0.66c1.22-2.72,2.74-5.3,4.49-7.71
			c0.05-0.07,0.55-0.79,0.58-0.78c0.01,0.01-0.64,0.8-0.3,0.38c0.1-0.12,0.2-0.25,0.29-0.37c0.45-0.56,0.91-1.1,1.38-1.64
			c0.79-0.89,1.61-1.74,2.47-2.56c0.41-0.39,0.82-0.77,1.25-1.14c0.19-0.16,0.37-0.32,0.56-0.48c0.17-0.14,0.97-0.76,0.22-0.2
			c-0.72,0.55-0.06,0.05,0.11-0.08c0.17-0.12,0.34-0.25,0.51-0.37c0.37-0.26,0.75-0.5,1.13-0.73c0.29-0.17,0.59-0.32,0.88-0.48
			c0.94-0.51-1.35,0.39-0.17,0.08c0.1-0.03,0.24-0.05,0.33-0.09c0.56-0.25-1.14,0.12-0.93,0.11c0.96-0.05-1.25-0.28-0.74-0.13
			c-1.2-0.37-2.03-1.02-2.61-1.99c0.16,0.26-0.55-1.6-0.36-0.79c0.04,0.16-0.29-1.72-0.14-0.78c0.02,0.11-0.02,0.23-0.02,0.34
			c0.02,0.69,0.26-1.37,0.11-0.83c-0.5,1.79-1.01,3.51-1.72,5.25c-0.42,1.03,0.43-0.96-0.06,0.15c-0.15,0.34-0.3,0.68-0.45,1.02
			c-0.34,0.76-0.69,1.51-1.04,2.26c-0.94,1.98-1.91,3.93-2.91,5.88c-1.19,2.33-0.68,5.53,1.79,6.84
			C456.23,299.43,459.51,298.92,460.79,296.43L460.79,296.43z"/>
	</g>
</g>
<g>
	<g>
		<path d="M547.14,259.31c-16.08,4.96-30.74,15.61-39.79,29.89c-2.62,4.14-4.45,9.33-2.93,14.21c1.49,4.79,5.79,8.89,11.09,8.54
			c5.15-0.34,8.69-3.95,11.8-7.7c3.23-3.89,6.46-7.79,9.69-11.68c7.3-8.81,14.61-17.62,21.91-26.43c-2.79-1.62-5.57-3.24-8.36-4.86
			c-1.89,13.57-4.57,27.01-8.02,40.26c-0.51,1.96,0.2,4.03,1.79,5.26c1.43,1.1,3.99,1.59,5.55,0.39
			c9.66-7.41,17.91-16.31,24.37-26.65c1.39-2.22,0.55-5.6-1.79-6.84c-2.46-1.3-5.36-0.58-6.84,1.79c-1.43,2.3-2.96,4.53-4.58,6.7
			c0.01-0.01-0.77,1.02-0.39,0.51c0.39-0.51-0.32,0.41-0.4,0.5c-0.44,0.56-0.89,1.11-1.35,1.66c-0.87,1.04-1.75,2.06-2.66,3.06
			c-1.82,2-3.73,3.93-5.71,5.77c-0.99,0.92-2.01,1.82-3.04,2.69c-0.54,0.46-1.09,0.91-1.65,1.36c-0.22,0.18-0.44,0.36-0.67,0.53
			c-0.09,0.07-1.21,0.94-0.34,0.27c2.45,1.88,4.9,3.76,7.34,5.65c3.46-13.25,6.14-26.7,8.03-40.26c0.3-2.15-0.18-4.53-2.3-5.65
			c-1.84-0.97-4.62-0.96-6.06,0.78c-5.88,7.09-11.75,14.17-17.63,21.26c-2.96,3.58-5.93,7.15-8.89,10.73
			c-2.67,3.22-5.18,6.77-8.22,9.65c-0.19,0.18-0.38,0.34-0.57,0.52c-0.08,0.08-0.6,0.46-0.09,0.09c0.48-0.36-0.53,0.31-0.73,0.44
			c-0.73,0.5,0.72-0.15-0.12,0.09c0.03-0.01-0.66,0.22-0.69,0.19c0.21-0.02,0.41-0.05,0.62-0.07c-0.12,0.01-0.24,0.01-0.36,0.02
			c-0.69-0.31-0.04,0.66,0.26,0.09c-0.01,0.02-0.45-0.1-0.48-0.11c-0.49-0.23,0.41,0.25,0.43,0.22c-0.01,0.02-0.62-0.33-0.57-0.31
			c-0.73-0.36,0.52,0.6-0.02-0.02c-0.06-0.07-0.47-0.43-0.46-0.48c-0.01,0.01,0.59,0.9,0.18,0.2c-0.1-0.17-0.75-1.3-0.38-0.61
			c0.33,0.62-0.09-0.32-0.14-0.54c-0.06-0.22-0.09-0.45-0.15-0.67c-0.14-0.54,0.09,0.45,0.07,0.48c0.2-0.34-0.11-1.12,0.03-1.52
			c-0.01,0.04-0.2,0.87-0.02,0.3c0.06-0.2,0.08-0.41,0.13-0.61c0.12-0.48,0.31-0.93,0.44-1.4c0.15-0.54-0.07,0.14-0.11,0.22
			c0.12-0.26,0.24-0.51,0.36-0.77c0.25-0.51,0.53-1,0.82-1.49c0.94-1.58,2.03-3.06,3.12-4.53c0.43-0.58-0.52,0.64-0.06,0.08
			c0.12-0.15,0.24-0.31,0.37-0.46c0.29-0.36,0.58-0.71,0.87-1.06c0.59-0.7,1.19-1.39,1.81-2.07c2.47-2.71,5.17-5.22,8.04-7.5
			c0.15-0.12,0.31-0.24,0.46-0.36c-0.32,0.25-0.52,0.39-0.08,0.06c0.42-0.31,0.84-0.63,1.27-0.93c0.85-0.61,1.72-1.2,2.6-1.77
			c1.7-1.11,3.46-2.14,5.25-3.09c0.87-0.46,1.75-0.9,2.63-1.32c0.47-0.23,0.95-0.44,1.43-0.66c0.24-0.11,0.48-0.21,0.72-0.32
			c0.54-0.24,0.21-0.16-0.11,0.04c0.82-0.53,2.01-0.8,2.93-1.13c0.99-0.35,1.98-0.68,2.99-0.99c2.5-0.77,4.34-3.53,3.49-6.15
			C552.47,260.29,549.81,258.48,547.14,259.31L547.14,259.31z"/>
	</g>
</g>
<g>
	<g>
		<path d="M521.54,409.59c25.23-34.16,49.48-69.04,72.77-104.55c23.9-36.43,46.83-73.51,68.89-111.08
			c17.76-30.26,34.95-60.84,51.65-91.7c10.95-20.24,21.63-40.62,32.35-60.99c2.83-5.38,5.63-10.79,8.65-16.07
			c0.72-1.27,1.5-2.49,2.28-3.72c0.52-0.81-1.03,1.16-0.41,0.54c0.54-0.55,0.09,0.02-0.71,0.49c-2.4,1.42-6.22,0.21-7.09-2.96
			c0.08,0.28-0.16-1.71-0.16-1.17c0,0.66,0.44-1.63,0.13-1c-0.24,0.5-0.35,1.13-0.55,1.65c-0.08,0.2-0.16,0.4-0.24,0.6
			c-0.43,1.1,0.36-0.81,0.18-0.41c-0.23,0.51-0.45,1.03-0.67,1.54c-1.25,2.79-2.57,5.55-3.9,8.31c-4.06,8.42-8.21,16.8-12.29,25.21
			c-10.62,21.87-21.05,43.89-29.88,66.55c-3.7,9.49-7.2,19.14-9.55,29.05c-1.59,6.71-3.4,14.83-1.2,21.63
			c0.98,3.03,2.8,5.76,5.69,7.26c3.36,1.74,7.25,1.57,10.83,0.68c9.23-2.31,17.66-8.51,25.16-14.09
			c12.59-9.37,24.37-19.81,35.86-30.49c15.02-13.95,29.54-28.43,43.84-43.11c8.02-8.23,15.97-16.53,23.87-24.88
			c-2.62-2.02-5.24-4.04-7.85-6.06c-12.61,19.06-24.3,38.73-34.92,58.96c-9.13,17.38-17.3,35.21-25.29,53.13
			c-9.04,20.28-17.96,40.89-23.57,62.43c-4.61,17.73-6.76,36.36-2.91,54.44c3.98,18.69,14.64,35.53,28.86,48.16
			c1.28,1.13,2.58,2.23,3.91,3.3c2.1,1.7,5.02,2.05,7.07,0c1.75-1.75,2.11-5.37,0-7.07c-6.21-5.02-12.18-10.96-16.71-17.18
			c-5.84-8.02-9.79-15.99-12.34-25.2c-0.5-1.79-0.93-3.6-1.3-5.42c-0.2-0.99-0.38-1.99-0.55-2.98c-0.08-0.5-0.16-1-0.23-1.5
			c-0.09-0.61-0.1-0.67-0.03-0.18c-0.04-0.34-0.08-0.67-0.12-1.01c-0.49-4.25-0.67-8.54-0.57-12.81c0.2-9.11,1.42-16.73,3.52-25.67
			c4.79-20.36,12.85-39.86,21.25-58.95c7.9-17.96,16.01-35.86,24.98-53.32c11.33-22.04,23.91-43.43,37.59-64.09
			c3.14-4.74-3.97-10.16-7.85-6.06c-27.93,29.53-56.27,59.12-87.29,85.46c-2.84,2.41-5.71,4.78-8.62,7.1
			c-0.57,0.45-1.14,0.9-1.71,1.35c-0.34,0.26-0.67,0.53-1.01,0.79c-1.11,0.87,0.79-0.6-0.32,0.25c-1.29,0.98-2.57,1.95-3.88,2.91
			c-4.29,3.14-8.7,6.16-13.37,8.71c-0.96,0.53-1.94,1.03-2.93,1.51c-0.38,0.18-0.77,0.36-1.16,0.54c-0.16,0.07-0.5,0.3-0.68,0.3
			c1.02-0.01,0.83-0.33,0.09-0.05c-1.57,0.59-3.12,1.05-4.75,1.41c-1.17,0.26,0.74-0.03,0.28-0.03c-0.33,0-0.66,0.06-0.99,0.07
			c-0.31,0.01-0.63-0.02-0.94-0.01c-1.18,0.03,1.2,0.33,0.31,0.06c-0.26-0.08-0.55-0.14-0.81-0.2c-0.13-0.03-0.25-0.11-0.38-0.13
			c-0.66-0.1,1.23,0.71,0.71,0.3c-0.15-0.12-0.4-0.23-0.57-0.31c-1.01-0.48,0.91,1,0.23,0.19c-0.12-0.14-0.28-0.3-0.42-0.42
			c-0.82-0.69,0.62,1.11,0.25,0.34c-0.18-0.38-0.47-1.05-0.74-1.36c0.86,0.97,0.39,1.1,0.16,0.28c-0.08-0.28-0.17-0.56-0.24-0.85
			c-0.06-0.25-0.1-0.5-0.16-0.75c-0.34-1.47,0.06,1.03-0.01,0.04c-0.1-1.5-0.16-2.97-0.08-4.47c0.04-0.78,0.11-1.56,0.19-2.33
			c0.02-0.22,0.05-0.44,0.08-0.67c0.06-0.6-0.2-0.78-0.06,0.42c-0.05-0.42,0.14-0.98,0.21-1.4c1.49-9.28,4.54-18.34,7.73-27.15
			c1.97-5.44,4.09-10.83,6.29-16.18c0.53-1.29,1.07-2.59,1.61-3.88c0.08-0.2,0.59-1.4,0.09-0.22c0.15-0.36,0.3-0.71,0.45-1.07
			c0.3-0.71,0.61-1.43,0.91-2.14c1.23-2.87,2.49-5.74,3.75-8.6c4.9-11.04,10.03-21.98,15.27-32.86c4.42-9.19,8.93-18.34,13.4-27.51
			c2.8-5.74,5.76-11.48,8.09-17.44c0.94-2.4,1.34-5.12-0.72-7.16c-3.09-3.07-6.75-0.98-8.76,1.86c-2.31,3.28-4.11,6.98-6,10.5
			c-9.29,17.31-18.27,34.79-27.52,52.12c-15.28,28.65-30.96,57.08-47.12,85.25c-20.9,36.42-42.58,72.39-65.14,107.8
			c-24.45,38.37-49.94,76.08-76.58,112.96c-4.69,6.5-9.43,12.98-14.19,19.43c-1.61,2.17-0.36,5.58,1.79,6.84
			C517.24,412.87,519.93,411.77,521.54,409.59L521.54,409.59z"/>
	</g>
</g>
<g>
	<g>
		<path d="M781.72,288.11c2.62,0,5.12-2.3,5-5c-0.12-2.71-2.2-5-5-5c-2.62,0-5.12,2.3-5,5
			C776.84,285.82,778.92,288.11,781.72,288.11L781.72,288.11z"/>
	</g>
</g>
<path class="st0" d="M195.22,188.79c3,9.72,5.98,22.98,6.41,38.86c0.57,21.31-3.69,38.63-7.46,49.93"/>
<path class="st0" d="M92.46,173.89c42.59-28.47,151.88-96.25,240.09-87.37c14.12,1.42,40.99,4.48,51.53,22.99
	c13.75,24.15-8.44,60.32-18.09,76.05c-58.04,94.58-263.6,207.33-325.85,240.52"/>
<path class="st1" d="M424.62,257.23c-2.39,1.24-1.1,9.53,1.25,10.13c1.77,0.45,5.78-3.03,4.44-6.67
	C429.36,258.11,426.08,256.48,424.62,257.23z"/>
</svg>
