<svg width="329" height="327" viewBox="0 0 329 327" fill="none" xmlns="http://www.w3.org/2000/svg">
<path d="M214.277 81.5131V0H164.026V163.974L214.277 81.5131ZM0 163.974H164.026L81.539 113.739H0V163.974ZM13.2738 244.539L48.3545 279.609L164.026 163.974L70.1615 186.722L13.2738 244.539ZM48.3545 48.3391L164.026 163.974L141.271 70.1392L84.3834 12.3217L48.3545 48.3391ZM113.775 327H164.026V163.974L113.775 246.435V327ZM164.026 163.974L186.781 257.809L244.617 315.626L279.697 279.609L164.026 163.974ZM164.026 163.974L246.513 214.209H329L328.052 163.974H164.026ZM164.026 163.974L257.891 141.226L315.726 83.4087L279.697 48.3391L164.026 163.974Z" fill="white"/>
</svg>
